<svg width="31" height="39" viewBox="0 0 31 39" fill="none" xmlns="http://www.w3.org/2000/svg">
<path d="M22.2615 13.3805L22.2615 13.3805L22.2615 13.3805ZM22.7311 13.0072L22.7099 12.9804L21.411 11.3463L21.3841 11.3125C21.0461 10.8873 20.7528 10.5182 20.4803 10.2612C20.189 9.98649 19.837 9.75709 19.3757 9.75709C18.9143 9.75709 18.5623 9.98649 18.271 10.2612C17.9985 10.5182 17.7052 10.8873 17.3672 11.3125L17.3403 11.3463L7.5865 23.6173L7.5825 23.6223C7.57341 23.6337 7.56433 23.6451 7.55529 23.6565C7.4321 23.8111 7.31375 23.9596 7.2325 24.1349C7.15125 24.3103 7.11447 24.4966 7.07618 24.6905C7.07337 24.7048 7.07055 24.719 7.0677 24.7334L6.03494 29.9305C6.03299 29.9403 6.03102 29.9502 6.02903 29.9602C5.99762 30.1178 5.96221 30.2954 5.95491 30.4452C5.94681 30.6113 5.96274 30.913 6.21887 31.1427C6.475 31.3724 6.77659 31.3556 6.94083 31.3295C7.08894 31.3061 7.2617 31.2516 7.41497 31.2033C7.42469 31.2003 7.43433 31.1972 7.44388 31.1942L11.2213 30.0062C11.2389 30.0006 11.2564 29.9951 11.2739 29.9897C11.5113 29.9154 11.7397 29.844 11.9394 29.7067C12.1392 29.5695 12.2878 29.382 12.4422 29.187C12.4536 29.1727 12.4651 29.1582 12.4765 29.1438L22.7311 16.2428L22.7513 16.2175C22.9713 15.9408 23.1686 15.6926 23.3063 15.4686C23.4569 15.2239 23.5732 14.9517 23.5732 14.625C23.5732 14.2983 23.4569 14.0261 23.3063 13.7814C23.1686 13.5574 22.9713 13.3092 22.7513 13.0326L22.7311 13.0072Z" stroke="#D41C24" stroke-width="1.2"/>
<path d="M16.1465 12.1875L21.3132 18.6875" stroke="#D41C24" stroke-width="1.2"/>
</svg>
