<svg width="72" height="89" viewBox="0 0 72 89" fill="none" xmlns="http://www.w3.org/2000/svg">
<path d="M36.3336 0.275041C34.7889 -0.312265 33.2675 0.0985971 32.2888 0.96295C31.338 1.80257 30.8625 3.08404 31.1959 4.37605C31.7221 6.41541 32 8.53713 32 10.7165C32 15.6923 30.5539 19.1773 28.0656 22.0662C25.5361 25.003 21.8746 27.394 17.2515 30.0917C17.1788 30.1341 17.1112 30.1826 17.0495 30.2365L16.4895 30.7258C6.57042 36.283 0 45.959 0 56.9665C0 74.2082 16.1178 88.1853 36 88.1853C55.8823 88.1853 72 74.2082 72 56.9665C72 51.9042 70.6095 47.1202 68.1405 42.8891C67.9397 42.5449 67.5541 42.3102 67.1126 42.2635C66.671 42.2167 66.2316 42.3639 65.9411 42.6561C65.5651 43.0342 65.1968 43.4073 64.834 43.775C60.1498 48.5211 56.3696 52.3513 48.6195 54.0621C48.2899 54.1349 48.0852 54.0808 47.9399 54.0021C47.7689 53.9095 47.5819 53.7246 47.4537 53.4291C47.1865 52.8134 47.3012 52.0282 47.8486 51.5136C51.9935 47.6165 54.9381 42.3265 55.9903 34.8011C57.9613 20.7045 50.5733 5.68904 36.3336 0.275041Z" fill="#D41C24"/>
</svg>
