<svg width="23" height="16" viewBox="0 0 23 16" fill="none" xmlns="http://www.w3.org/2000/svg">
<path d="M9.41239 3.52449C10.2973 1.89032 10.7398 1.07324 11.5007 1.07324C12.2615 1.07324 12.704 1.89033 13.5889 3.52449L13.6301 3.60059C14.1301 4.52381 14.38 4.98542 14.8895 5.266C15.3989 5.54657 16.0677 5.59093 17.4052 5.67967L17.647 5.69571C19.8361 5.84093 20.9306 5.91354 21.1648 6.42935C21.399 6.94517 20.5862 7.49296 18.9605 8.58853L18.4179 8.95418C17.595 9.50878 17.1835 9.78608 16.9917 10.1495C16.956 10.2173 16.9262 10.2868 16.9027 10.3574C16.7766 10.7363 16.8971 11.1386 17.1381 11.9432L17.2131 12.1936C17.656 13.6722 17.8775 14.4115 17.4908 14.7304C17.3463 14.8496 17.1586 14.9354 16.95 14.9775C16.3917 15.0903 15.5992 14.612 14.0141 13.6552C12.9733 13.027 12.4529 12.7129 11.8554 12.6422C11.6204 12.6144 11.3809 12.6144 11.1459 12.6422C10.5484 12.7129 10.028 13.027 8.98717 13.6552C7.4021 14.612 6.60957 15.0903 6.05134 14.9775C5.84275 14.9354 5.65497 14.8496 5.51049 14.7304C5.12386 14.4115 5.3453 13.6722 5.78818 12.1936L5.86319 11.9432C6.10418 11.1386 6.22467 10.7363 6.09861 10.3574C6.07509 10.2868 6.04535 10.2173 6.00958 10.1495C5.81779 9.78608 5.40632 9.50878 4.58338 8.95418L4.04081 8.58853C2.41513 7.49296 1.6023 6.94517 1.8365 6.42935C2.0707 5.91354 3.16522 5.84093 5.35426 5.69571L5.59606 5.67967C6.93359 5.59093 7.60236 5.54657 8.11182 5.266C8.62127 4.98542 8.87124 4.52381 9.37119 3.60059L9.41239 3.52449Z" fill="#D41C24" stroke="#D41C24" stroke-width="2"/>
</svg>
