<svg width="115" height="24" viewBox="0 0 115 24" fill="none" xmlns="http://www.w3.org/2000/svg">
<path d="M0 0H107C111.418 0 115 3.58172 115 8V24H8C3.58172 24 0 20.4183 0 16V0Z" fill="white" fill-opacity="0.5"/>
<path d="M12.0879 12.5635C10.9622 12.2399 10.1419 11.8434 9.62695 11.374C9.11654 10.9001 8.86133 10.3167 8.86133 9.62402C8.86133 8.84017 9.1735 8.19303 9.79785 7.68262C10.4268 7.16764 11.2425 6.91016 12.2451 6.91016C12.9287 6.91016 13.5371 7.04232 14.0703 7.30664C14.6081 7.57096 15.0228 7.93555 15.3145 8.40039C15.6107 8.86523 15.7588 9.37337 15.7588 9.9248H14.4395C14.4395 9.32324 14.248 8.85156 13.8652 8.50977C13.4824 8.16341 12.9424 7.99023 12.2451 7.99023C11.598 7.99023 11.0921 8.13379 10.7275 8.4209C10.3675 8.70345 10.1875 9.09766 10.1875 9.60352C10.1875 10.0091 10.3584 10.3532 10.7002 10.6357C11.0465 10.9137 11.6322 11.1689 12.457 11.4014C13.2865 11.6338 13.9336 11.8913 14.3984 12.1738C14.8678 12.4518 15.2142 12.7777 15.4375 13.1514C15.6654 13.5251 15.7793 13.9648 15.7793 14.4707C15.7793 15.2773 15.4648 15.9245 14.8359 16.4121C14.207 16.8952 13.3662 17.1367 12.3135 17.1367C11.6299 17.1367 10.9919 17.0068 10.3994 16.7471C9.80697 16.4827 9.34896 16.1227 9.02539 15.667C8.70638 15.2113 8.54688 14.694 8.54688 14.1152H9.86621C9.86621 14.7168 10.0872 15.193 10.5293 15.5439C10.9759 15.8903 11.5706 16.0635 12.3135 16.0635C13.0062 16.0635 13.5371 15.9222 13.9062 15.6396C14.2754 15.3571 14.46 14.972 14.46 14.4844C14.46 13.9967 14.2891 13.6208 13.9473 13.3564C13.6055 13.0876 12.9857 12.8232 12.0879 12.5635ZM20.2363 16.1045C20.6875 16.1045 21.0817 15.9678 21.4189 15.6943C21.7562 15.4209 21.943 15.0791 21.9795 14.6689H23.1758C23.153 15.0928 23.0072 15.4961 22.7383 15.8789C22.4694 16.2617 22.1094 16.5671 21.6582 16.7949C21.2116 17.0228 20.7376 17.1367 20.2363 17.1367C19.2292 17.1367 18.4271 16.8018 17.8301 16.1318C17.2376 15.4574 16.9414 14.5368 16.9414 13.3701V13.1582C16.9414 12.4382 17.0736 11.7979 17.3379 11.2373C17.6022 10.6768 17.9805 10.2415 18.4727 9.93164C18.9694 9.62174 19.555 9.4668 20.2295 9.4668C21.0589 9.4668 21.7471 9.71517 22.2939 10.2119C22.8454 10.7087 23.1393 11.3535 23.1758 12.1465H21.9795C21.943 11.668 21.7607 11.276 21.4326 10.9707C21.109 10.6608 20.708 10.5059 20.2295 10.5059C19.5869 10.5059 19.0879 10.7383 18.7324 11.2031C18.3815 11.6634 18.2061 12.3311 18.2061 13.2061V13.4453C18.2061 14.2975 18.3815 14.9538 18.7324 15.4141C19.0833 15.8743 19.5846 16.1045 20.2363 16.1045ZM25.9717 17H24.707V9.60352H25.9717V17ZM24.6045 7.6416C24.6045 7.43652 24.666 7.26335 24.7891 7.12207C24.9167 6.98079 25.1035 6.91016 25.3496 6.91016C25.5957 6.91016 25.7826 6.98079 25.9102 7.12207C26.0378 7.26335 26.1016 7.43652 26.1016 7.6416C26.1016 7.84668 26.0378 8.01758 25.9102 8.1543C25.7826 8.29102 25.5957 8.35938 25.3496 8.35938C25.1035 8.35938 24.9167 8.29102 24.7891 8.1543C24.666 8.01758 24.6045 7.84668 24.6045 7.6416ZM30.6338 13.2881H27.2979V12.2559H30.6338V13.2881ZM37.5586 12.6045H33.3818V17H32.0693V7.04688H38.2354V8.12695H33.3818V11.5312H37.5586V12.6045ZM40.9834 17H39.7188V9.60352H40.9834V17ZM39.6162 7.6416C39.6162 7.43652 39.6777 7.26335 39.8008 7.12207C39.9284 6.98079 40.1152 6.91016 40.3613 6.91016C40.6074 6.91016 40.7943 6.98079 40.9219 7.12207C41.0495 7.26335 41.1133 7.43652 41.1133 7.6416C41.1133 7.84668 41.0495 8.01758 40.9219 8.1543C40.7943 8.29102 40.6074 8.35938 40.3613 8.35938C40.1152 8.35938 39.9284 8.29102 39.8008 8.1543C39.6777 8.01758 39.6162 7.84668 39.6162 7.6416ZM46.2197 14.3271C46.2197 13.8486 46.3519 13.4089 46.6162 13.0078C46.8851 12.6068 47.3955 12.1396 48.1475 11.6064C47.7054 11.0687 47.4092 10.6357 47.2588 10.3076C47.1084 9.97949 47.0332 9.65365 47.0332 9.33008C47.0332 8.57357 47.2565 7.98112 47.7031 7.55273C48.1497 7.12435 48.7559 6.91016 49.5215 6.91016C50.2051 6.91016 50.7702 7.11068 51.2168 7.51172C51.6634 7.9082 51.8867 8.40951 51.8867 9.01562C51.8867 9.41667 51.7842 9.78809 51.5791 10.1299C51.3786 10.4671 51.0254 10.8226 50.5195 11.1963L49.7881 11.7363L52.0029 14.3818C52.3128 13.7894 52.4678 13.1309 52.4678 12.4062H53.6094C53.6094 13.5684 53.3291 14.5322 52.7686 15.2979L54.1904 17H52.6729L52.0098 16.2139C51.6725 16.5146 51.276 16.7448 50.8203 16.9043C50.3691 17.0592 49.9089 17.1367 49.4395 17.1367C48.4688 17.1367 47.6895 16.8792 47.1016 16.3643C46.5137 15.8493 46.2197 15.1702 46.2197 14.3271ZM49.4395 16.1045C50.1094 16.1045 50.7223 15.8493 51.2783 15.3389L48.8516 12.4336L48.626 12.5977C47.8649 13.1582 47.4844 13.7347 47.4844 14.3271C47.4844 14.8649 47.6576 15.2956 48.0039 15.6191C48.3548 15.9427 48.8333 16.1045 49.4395 16.1045ZM48.2979 9.28906C48.2979 9.72656 48.5667 10.2734 49.1045 10.9297L49.9111 10.3623C50.221 10.1436 50.4329 9.9362 50.5469 9.74023C50.6608 9.53971 50.7178 9.29818 50.7178 9.01562C50.7178 8.71029 50.6038 8.45736 50.376 8.25684C50.1481 8.05176 49.861 7.94922 49.5146 7.94922C49.141 7.94922 48.8447 8.07682 48.626 8.33203C48.4072 8.58268 48.2979 8.90169 48.2979 9.28906ZM64.3555 12.6045H60.1787V17H58.8662V7.04688H65.0322V8.12695H60.1787V11.5312H64.3555V12.6045ZM70.7402 17C70.6673 16.8542 70.6081 16.5944 70.5625 16.2207C69.9746 16.8314 69.2728 17.1367 68.457 17.1367C67.7279 17.1367 67.1286 16.9316 66.6592 16.5215C66.1943 16.1068 65.9619 15.5827 65.9619 14.9492C65.9619 14.179 66.2536 13.582 66.8369 13.1582C67.4248 12.7298 68.2497 12.5156 69.3115 12.5156H70.542V11.9346C70.542 11.4925 70.4098 11.1416 70.1455 10.8818C69.8812 10.6175 69.4915 10.4854 68.9766 10.4854C68.5254 10.4854 68.1471 10.5993 67.8418 10.8271C67.5365 11.055 67.3838 11.3307 67.3838 11.6543H66.1123C66.1123 11.2852 66.2422 10.9297 66.502 10.5879C66.7663 10.2415 67.1217 9.9681 67.5684 9.76758C68.0195 9.56706 68.514 9.4668 69.0518 9.4668C69.904 9.4668 70.5716 9.68099 71.0547 10.1094C71.5378 10.5332 71.7884 11.1188 71.8066 11.8662V15.2705C71.8066 15.9495 71.8932 16.4896 72.0664 16.8906V17H70.7402ZM68.6416 16.0361C69.0381 16.0361 69.4141 15.9336 69.7695 15.7285C70.125 15.5234 70.3825 15.2568 70.542 14.9287V13.4111H69.5508C68.0013 13.4111 67.2266 13.8646 67.2266 14.7715C67.2266 15.168 67.3587 15.4779 67.623 15.7012C67.8874 15.9245 68.2269 16.0361 68.6416 16.0361ZM74.9854 9.60352L75.0264 10.5332C75.5915 9.82227 76.3298 9.4668 77.2412 9.4668C78.8044 9.4668 79.5928 10.3486 79.6064 12.1123V17H78.3418V12.1055C78.3372 11.5723 78.2142 11.1781 77.9727 10.9229C77.7357 10.6676 77.3643 10.54 76.8584 10.54C76.4482 10.54 76.0882 10.6494 75.7783 10.8682C75.4684 11.0869 75.2269 11.374 75.0537 11.7295V17H73.7891V9.60352H74.9854ZM83.2295 7.8125V9.60352H84.6104V10.5811H83.2295V15.168C83.2295 15.4642 83.291 15.6875 83.4141 15.8379C83.5371 15.9837 83.7467 16.0566 84.043 16.0566C84.1888 16.0566 84.3893 16.0293 84.6445 15.9746V17C84.3118 17.0911 83.9883 17.1367 83.6738 17.1367C83.1087 17.1367 82.6826 16.9658 82.3955 16.624C82.1084 16.2822 81.9648 15.7969 81.9648 15.168V10.5811H80.6182V9.60352H81.9648V7.8125H83.2295ZM90.6602 17C90.5872 16.8542 90.528 16.5944 90.4824 16.2207C89.8945 16.8314 89.1927 17.1367 88.377 17.1367C87.6478 17.1367 87.0485 16.9316 86.5791 16.5215C86.1143 16.1068 85.8818 15.5827 85.8818 14.9492C85.8818 14.179 86.1735 13.582 86.7568 13.1582C87.3447 12.7298 88.1696 12.5156 89.2314 12.5156H90.4619V11.9346C90.4619 11.4925 90.3298 11.1416 90.0654 10.8818C89.8011 10.6175 89.4115 10.4854 88.8965 10.4854C88.4453 10.4854 88.0671 10.5993 87.7617 10.8271C87.4564 11.055 87.3037 11.3307 87.3037 11.6543H86.0322C86.0322 11.2852 86.1621 10.9297 86.4219 10.5879C86.6862 10.2415 87.0417 9.9681 87.4883 9.76758C87.9395 9.56706 88.4339 9.4668 88.9717 9.4668C89.8239 9.4668 90.4915 9.68099 90.9746 10.1094C91.4577 10.5332 91.7083 11.1188 91.7266 11.8662V15.2705C91.7266 15.9495 91.8132 16.4896 91.9863 16.8906V17H90.6602ZM88.5615 16.0361C88.958 16.0361 89.334 15.9336 89.6895 15.7285C90.0449 15.5234 90.3024 15.2568 90.4619 14.9287V13.4111H89.4707C87.9212 13.4111 87.1465 13.8646 87.1465 14.7715C87.1465 15.168 87.2786 15.4779 87.543 15.7012C87.8073 15.9245 88.1468 16.0361 88.5615 16.0361ZM98.0156 15.0381C98.0156 14.6963 97.8857 14.432 97.626 14.2451C97.3708 14.0537 96.9219 13.8896 96.2793 13.7529C95.6413 13.6162 95.1331 13.4521 94.7549 13.2607C94.3812 13.0693 94.1032 12.8415 93.9209 12.5771C93.7432 12.3128 93.6543 11.9984 93.6543 11.6338C93.6543 11.0277 93.9095 10.515 94.4199 10.0957C94.9349 9.67643 95.5911 9.4668 96.3887 9.4668C97.2272 9.4668 97.9062 9.68327 98.4258 10.1162C98.9499 10.5492 99.2119 11.1029 99.2119 11.7773H97.9404C97.9404 11.431 97.7923 11.1325 97.4961 10.8818C97.2044 10.6312 96.8353 10.5059 96.3887 10.5059C95.9284 10.5059 95.5684 10.6061 95.3086 10.8066C95.0488 11.0072 94.9189 11.2692 94.9189 11.5928C94.9189 11.8981 95.0397 12.1283 95.2812 12.2832C95.5228 12.4382 95.958 12.5863 96.5869 12.7275C97.2204 12.8688 97.7331 13.0374 98.125 13.2334C98.5169 13.4294 98.8063 13.6663 98.9932 13.9443C99.1846 14.2178 99.2803 14.5527 99.2803 14.9492C99.2803 15.61 99.016 16.141 98.4873 16.542C97.9587 16.9385 97.2728 17.1367 96.4297 17.1367C95.8372 17.1367 95.3132 17.0319 94.8574 16.8223C94.4017 16.6126 94.0439 16.321 93.7842 15.9473C93.529 15.569 93.4014 15.1611 93.4014 14.7236H94.666C94.6888 15.1475 94.8574 15.4847 95.1719 15.7354C95.4909 15.9814 95.9102 16.1045 96.4297 16.1045C96.9082 16.1045 97.291 16.0088 97.5781 15.8174C97.8698 15.6214 98.0156 15.3617 98.0156 15.0381ZM103.348 15.1475L105.07 9.60352H106.424L103.45 18.1416C102.99 19.3721 102.258 19.9873 101.256 19.9873L101.017 19.9668L100.545 19.8779V18.8525L100.887 18.8799C101.315 18.8799 101.648 18.7933 101.885 18.6201C102.126 18.4469 102.325 18.1302 102.479 17.6699L102.76 16.918L100.121 9.60352H101.502L103.348 15.1475Z" fill="#D41C24"/>
</svg>
