<svg xmlns="http://www.w3.org/2000/svg" width="95" height="40" fill="none"><path d="M50.32 3.653c4.515-3.823 9.25-3.745 13.276-1.76 3.744 1.974 5.086 4.813 5.146 8.96l-.002 10.17s-.038 2.87-2.98 2.87c-2.795 0-2.927-2.852-2.927-2.852l-.04-10.048s-.17-4.668-4.838-4.668c-4.692 0-5.065 4.644-5.065 4.644v9.9s0 2.997-2.97 2.997c-2.9 0-2.962-2.997-2.962-2.997l-.002-9.863s-.1-4.672-5.048-4.672c-4.936 0-4.8 4.742-4.8 4.742V21.2s-.344 2.668-2.947 2.668c-2.698 0-2.97-2.693-2.97-2.693l-.018-10.236c0-3.774.73-7.52 6.098-9.64C39.7.345 42.56.366 45.13.95a14.16 14.16 0 0 1 4.63 2.704l.273.238.3-.238zM21.68 20.96c0-2.942-2.917-2.953-2.917-2.953H8.248c-.623 0-.696-.474-.546-1.03 1.284-3.2 4.132-6.76 7.178-8.32 2.52-1.287 5.408-2.626 8.403-2.43.627.05.627.34.628 1.324v13.267s.15 3.013 3.07 3.013c3.003 0 2.765-2.913 2.765-2.913l-.012-16.66c.04-1.012-.145-1.985-.748-2.763-.448-.408-1.05-.836-1.733-.932-3.58-.293-7.016.03-10.3 1C10.835 3.33 5 8.292 2.004 14.195.984 16.206.04 18.844 0 21.276c.04 1.167.525 2.528 1.857 2.528l16.952.086s2.87.108 2.87-2.93zm70.103-7.223c2.967.3 2.597 3.093 2.597 3.093-1.602 5.038-6.322 8.118-11.9 8.118a12.48 12.48 0 0 1-12.474-12.476A12.48 12.48 0 0 1 82.49 0c5.593 0 10.326 2.73 11.9 7.8 0 0 .755 3.054-2.528 3.433-2.43 0-2.805-1.98-2.805-1.98-.94-2.72-3.524-3.722-6.565-3.722a6.94 6.94 0 0 0-6.942 6.942c0 3.835 3.107 6.945 6.942 6.945 3.005 0 5.56-1.334 6.53-4.004 0 0 .595-1.725 2.752-1.676zM3.498 31.4c.516 0 .9.155 1.172.46.146.172.27.43.363.77l.004.013h1.53l-.001-.02c-.022-.45-.188-.902-.493-1.346-.553-.792-1.438-1.194-2.63-1.194-.892 0-1.638.3-2.216.9-.664.678-1 1.655-1 2.906 0 1.156.296 2.08.88 2.744s1.398.998 2.418.998c.825 0 1.5-.25 2.04-.74s.86-1.134 1-1.916l.003-.02H5.032l-.003.013c-.097.365-.22.643-.368.825-.264.337-.655.508-1.16.508-.493 0-.905-.2-1.224-.594s-.484-1-.484-1.794.155-1.42.46-1.855a1.45 1.45 0 0 1 1.248-.651z" fill-rule="evenodd" fill="#e51937"/><mask id="A" mask-type="alpha" maskUnits="userSpaceOnUse" x="0" y="0" width="95" height="40"><path fill-rule="evenodd" d="M0 39.72h94.476V0H0v39.72z" fill="#fff"/></mask><g mask="url(#A)" fill-rule="evenodd" fill="#e51937"><path d="M7.4 37.435h1.524v-7.202H7.4v7.202zm7.062-2.255l-2.817-4.947h-1.598v7.202h1.43V32.4l2.9 5.036h1.526v-7.202h-1.43v4.947zm4.128-.876h3.48v-1.28h-3.48v-1.486h3.793v-1.305H17.08v7.202h5.467V36.1H18.58v-1.807zm8.36 1.502l-1.3-5.573h-2.212v7.203h1.432V32.57l-.005-.586-.004-.416 1.315 5.868h1.484l1.326-5.87-.01 1.003v4.865H30.4V30.23h-2.18l-1.28 5.573zm8.38-1.116h-1.786l.905-2.744.88 2.744zm-.005-4.458h-1.72l-2.57 7.202h1.605l.486-1.473h2.613l.473 1.473h1.662l-2.548-7.202zm8.18 3.612c-.276-.218-.696-.394-1.247-.523l-1.258-.297c-.482-.113-.8-.212-.948-.295a.6.6 0 0 1-.339-.558c0-.27.116-.485.346-.636s.547-.23.937-.23c.35 0 .648.06.884.178.35.178.543.482.57.904v.017h1.475l-.001-.02c-.026-.764-.314-1.355-.856-1.757s-1.203-.604-1.967-.604c-.916 0-1.62.216-2.094.642s-.715.97-.715 1.613c0 .707.247 1.233.732 1.566.286.198.816.384 1.578.552l.776.17c.45.097.784.2 1 .333s.305.305.305.534c0 .395-.2.67-.628.814-.222.077-.516.116-.873.116-.594 0-1.02-.147-1.262-.436-.133-.158-.223-.402-.27-.725v-.016h-1.463v.018c0 .747.275 1.344.818 1.772s1.294.643 2.237.643c.924 0 1.65-.22 2.156-.654a2.08 2.08 0 0 0 .766-1.645c0-.64-.218-1.138-.648-1.477zM50.3 37.5v-7.284h1.66v5.942h.112V37.5h-1.77z"/><path d="M58.876 37.216h.418c.613 0 .906-.27.906-.823v-2.65h-.418c-.613 0-.906.27-.906.823v2.65zm-6.927.293v-1.342h5.268v-1.725c0-1.206 1.06-2.04 2.62-2.04h2.05v3.766h.07v1.342h-.4c-.502.7-1.296 1.06-2.356 1.06h-1.993v-1.06H51.95z"/><path d="M67.36 31.567h1.66v-1.342h-1.66v1.342zm-5.473 4.6h5.473V32.4h1.66v3.766h.084v1.342h-7.216v-1.342z"/><path d="M76.193 39.72h1.66v-1.364h-1.66v1.364zm-2.356 0h1.66v-1.364h-1.66v1.364zm-4.818-3.552h7.173V32.4h1.66v3.766h.084v1.342H69.02v-1.342z"/><path d="M85.512 36.167v-1.95h1.66v1.95h1.896v-2.853h1.66v2.853h1.854V32.4h1.66v5.108H77.71v-1.342h7.8z"/></g></svg>