<svg width="23" height="16" viewBox="0 0 23 16" fill="none" xmlns="http://www.w3.org/2000/svg">
<path d="M9.41239 3.52254C10.2973 1.88837 10.7398 1.07129 11.5007 1.07129C12.2615 1.07129 12.704 1.88837 13.5889 3.52254L13.6301 3.59863C14.1301 4.52186 14.38 4.98347 14.8895 5.26404C15.3989 5.54462 16.0677 5.58898 17.4052 5.67771L17.647 5.69375C19.8361 5.83897 20.9306 5.91158 21.1648 6.4274C21.399 6.94322 20.5862 7.49101 18.9605 8.58658L18.4179 8.95223C17.595 9.50682 17.1835 9.78412 16.9917 10.1476C16.956 10.2154 16.9262 10.2848 16.9027 10.3555C16.7766 10.7344 16.8971 11.1367 17.1381 11.9412L17.2131 12.1916C17.656 13.6703 17.8775 14.4096 17.4908 14.7285C17.3463 14.8476 17.1586 14.9334 16.95 14.9756C16.3917 15.0884 15.5992 14.61 14.0141 13.6533C12.9733 13.025 12.4529 12.7109 11.8554 12.6403C11.6204 12.6125 11.3809 12.6125 11.1459 12.6403C10.5484 12.7109 10.028 13.025 8.98717 13.6533C7.4021 14.61 6.60957 15.0884 6.05134 14.9756C5.84275 14.9334 5.65497 14.8476 5.51049 14.7285C5.12386 14.4096 5.3453 13.6703 5.78818 12.1916L5.86319 11.9412C6.10418 11.1367 6.22467 10.7344 6.09861 10.3555C6.07509 10.2848 6.04535 10.2154 6.00958 10.1476C5.81779 9.78412 5.40632 9.50682 4.58338 8.95223L4.04081 8.58658C2.41513 7.49101 1.6023 6.94322 1.8365 6.4274C2.0707 5.91158 3.16522 5.83897 5.35426 5.69375L5.59606 5.67771C6.93359 5.58898 7.60236 5.54462 8.11182 5.26404C8.62127 4.98347 8.87124 4.52186 9.37119 3.59863L9.41239 3.52254Z" fill="#D41C24" stroke="#D41C24" stroke-width="2"/>
</svg>
