<svg width="20" height="20" viewBox="0 0 20 20" fill="none" xmlns="http://www.w3.org/2000/svg">
<path d="M7.7838 3.44275C8.62445 1.26787 9.04477 0.180435 9.72765 0.0297217C9.90721 -0.00990725 10.0928 -0.00990725 10.2723 0.0297217C10.9552 0.180435 11.3756 1.26787 12.2162 3.44275C12.6943 4.67955 12.9333 5.29796 13.3805 5.71857C13.506 5.83655 13.6422 5.94162 13.7872 6.03231C14.3041 6.35566 14.9494 6.41563 16.2401 6.53559C18.4249 6.73865 19.5174 6.84018 19.851 7.48658C19.9201 7.62045 19.967 7.7654 19.9899 7.91539C20.1005 8.63962 19.2974 9.39787 17.6913 10.9144L17.2452 11.3355C16.4943 12.0445 16.1188 12.399 15.9017 12.8414C15.7714 13.1067 15.684 13.3925 15.6431 13.6873C15.5749 14.1788 15.6848 14.693 15.9047 15.7215L15.9833 16.089C16.3776 17.9335 16.5748 18.8558 16.3287 19.3091C16.1076 19.7163 15.7004 19.977 15.2505 19.9993C14.7497 20.0241 14.044 19.4273 12.6326 18.2339C11.7028 17.4475 11.2379 17.0544 10.7217 16.9008C10.2501 16.7605 9.74991 16.7605 9.27825 16.9008C8.76213 17.0544 8.29721 17.4475 7.36736 18.2339C5.956 19.4273 5.25033 20.0241 4.74951 19.9993C4.29965 19.977 3.89241 19.7163 3.67132 19.3091C3.42519 18.8558 3.62236 17.9335 4.0167 16.089L4.09527 15.7215C4.31516 14.693 4.42511 14.1788 4.35688 13.6873C4.31595 13.3925 4.2286 13.1067 4.09833 12.8414C3.88116 12.399 3.5057 12.0445 2.75478 11.3355L2.30875 10.9144C0.702561 9.39787 -0.100533 8.63962 0.0100652 7.91539C0.032971 7.7654 0.0799461 7.62045 0.149037 7.48658C0.482637 6.84018 1.57506 6.73865 3.7599 6.53559C5.05056 6.41563 5.69588 6.35566 6.21283 6.03231C6.35783 5.94162 6.49401 5.83655 6.61946 5.71857C7.06672 5.29796 7.30575 4.67955 7.7838 3.44275Z" fill="#D41C24"/>
</svg>
