<svg width="31" height="22" viewBox="0 0 31 22" fill="none" xmlns="http://www.w3.org/2000/svg">
<g opacity="0.8">
<path fill-rule="evenodd" clip-rule="evenodd" d="M10.3333 1.83301C9.61997 1.83301 9.04167 2.24341 9.04167 2.74967V3.66634H7.75C5.6099 3.66634 3.875 4.89756 3.875 6.41634V8.24967V17.4163C3.875 18.9351 5.6099 20.1663 7.75 20.1663H23.25C25.3901 20.1663 27.125 18.9351 27.125 17.4163V8.24967V6.41634C27.125 4.89756 25.3901 3.66634 23.25 3.66634H21.9583V2.74967C21.9583 2.24341 21.38 1.83301 20.6667 1.83301C19.9533 1.83301 19.375 2.24341 19.375 2.74967V3.66634H11.625V2.74967C11.625 2.24341 11.0467 1.83301 10.3333 1.83301ZM20.6667 5.49967H10.3333H7.75C7.03663 5.49967 6.45833 5.91008 6.45833 6.41634V7.33301H24.5417V6.41634C24.5417 5.91008 23.9634 5.49967 23.25 5.49967H20.6667ZM6.45833 17.4163V9.16634L24.5417 9.16634V17.4163C24.5417 17.9226 23.9634 18.333 23.25 18.333H7.75C7.03663 18.333 6.45833 17.9226 6.45833 17.4163Z" fill="#D41C24"/>
</g>
</svg>
