<svg width="45" height="42" viewBox="0 0 45 42" fill="none" xmlns="http://www.w3.org/2000/svg">
<path d="M17.9362 8.46506C19.87 3.88939 20.8368 1.60156 22.4995 1.60156C24.1621 1.60156 25.129 3.8894 27.0627 8.46506L27.1528 8.67813C28.2452 11.2632 28.7915 12.5557 29.9047 13.3413C31.018 14.1269 32.4793 14.2511 35.4021 14.4995L35.9305 14.5445C40.7139 14.9511 43.1057 15.1544 43.6174 16.5987C44.1292 18.043 42.353 19.5768 38.8006 22.6444L37.615 23.6682C35.8167 25.2211 34.9176 25.9975 34.4985 27.0151C34.4203 27.205 34.3553 27.3994 34.3039 27.5973C34.0285 28.6582 34.2918 29.7846 34.8184 32.0373L34.9823 32.7386C35.9501 36.8787 36.434 38.9487 35.5891 39.8416C35.2734 40.1753 34.8631 40.4155 34.4072 40.5336C33.1874 40.8495 31.4556 39.51 27.9919 36.8311C25.7175 35.0721 24.5803 34.1926 23.2747 33.9947C22.7611 33.9169 22.2378 33.9169 21.7243 33.9947C20.4186 34.1926 19.2814 35.0721 17.0071 36.8311C13.5434 39.51 11.8115 40.8495 10.5917 40.5336C10.1359 40.4155 9.72558 40.1753 9.40987 39.8416C8.56499 38.9487 9.04888 36.8787 10.0167 32.7386L10.1806 32.0373C10.7072 29.7846 10.9705 28.6582 10.695 27.5973C10.6436 27.3994 10.5786 27.205 10.5005 27.0151C10.0814 25.9975 9.18223 25.2211 7.38394 23.6682L6.19833 22.6444C2.64593 19.5768 0.869734 18.043 1.38151 16.5987C1.89328 15.1544 4.28501 14.9511 9.06847 14.5445L9.59685 14.4995C12.5196 14.2511 13.981 14.1269 15.0942 13.3413C16.2075 12.5557 16.7537 11.2632 17.8462 8.67813L17.9362 8.46506Z" fill="#D41C24" stroke="#D41C24" stroke-width="2"/>
</svg>
