<svg width="208" height="52" viewBox="0 0 208 52" fill="none" xmlns="http://www.w3.org/2000/svg">
<g filter="url(#filter0_d_74:2415)">
<rect x="5" y="1.84766" width="198" height="40.7826" rx="3" fill="white" stroke="#D41C24" stroke-width="2"/>
<path d="M39 22.2392C39 26.5044 35.0819 30.1523 30 30.1523C24.9181 30.1523 21 26.5044 21 22.2392C21 17.974 24.9181 14.3262 30 14.3262C35.0819 14.3262 39 17.974 39 22.2392Z" stroke="#D41C24" stroke-width="2"/>
<path d="M82.304 27.8507C82.076 27.8507 81.896 27.7847 81.764 27.6527C81.632 27.5087 81.566 27.3227 81.566 27.0947V15.7907C81.566 15.5747 81.632 15.4007 81.764 15.2687C81.908 15.1367 82.094 15.0707 82.322 15.0707H88.874C89.09 15.0707 89.258 15.1247 89.378 15.2327C89.498 15.3407 89.558 15.4967 89.558 15.7007C89.558 15.8927 89.498 16.0427 89.378 16.1507C89.258 16.2587 89.09 16.3127 88.874 16.3127H83.024V20.6867H88.514C88.73 20.6867 88.898 20.7407 89.018 20.8487C89.138 20.9567 89.198 21.1127 89.198 21.3167C89.198 21.5087 89.138 21.6587 89.018 21.7667C88.898 21.8747 88.73 21.9287 88.514 21.9287H83.024V27.0947C83.024 27.3227 82.958 27.5087 82.826 27.6527C82.706 27.7847 82.532 27.8507 82.304 27.8507ZM94.6879 18.7787C96.8839 18.7787 97.9819 19.9307 97.9819 22.2347V27.1307C97.9819 27.3467 97.9159 27.5207 97.7839 27.6527C97.6639 27.7847 97.4959 27.8507 97.2799 27.8507C97.0639 27.8507 96.8899 27.7847 96.7579 27.6527C96.6259 27.5207 96.5599 27.3467 96.5599 27.1307V26.2667C96.3319 26.7827 95.9839 27.1847 95.5159 27.4727C95.0479 27.7487 94.5079 27.8867 93.8959 27.8867C93.3319 27.8867 92.8099 27.7727 92.3299 27.5447C91.8619 27.3167 91.4899 26.9987 91.2139 26.5907C90.9379 26.1827 90.7999 25.7327 90.7999 25.2407C90.7999 24.5807 90.9679 24.0707 91.3039 23.7107C91.6399 23.3387 92.1919 23.0747 92.9599 22.9187C93.7279 22.7507 94.7959 22.6667 96.1639 22.6667H96.5599V22.0727C96.5599 21.3527 96.4099 20.8247 96.1099 20.4887C95.8219 20.1527 95.3479 19.9847 94.6879 19.9847C93.8719 19.9847 93.0439 20.2067 92.2039 20.6507C91.8799 20.8547 91.6519 20.9567 91.5199 20.9567C91.3759 20.9567 91.2559 20.9027 91.1599 20.7947C91.0639 20.6867 91.0159 20.5487 91.0159 20.3807C91.0159 20.2127 91.0639 20.0687 91.1599 19.9487C91.2679 19.8167 91.4359 19.6847 91.6639 19.5527C92.0839 19.3127 92.5579 19.1267 93.0859 18.9947C93.6259 18.8507 94.1599 18.7787 94.6879 18.7787ZM94.0939 26.7347C94.8139 26.7347 95.4019 26.4947 95.8579 26.0147C96.3259 25.5227 96.5599 24.8927 96.5599 24.1247V23.6027H96.2359C95.1799 23.6027 94.3759 23.6507 93.8239 23.7467C93.2719 23.8307 92.8759 23.9807 92.6359 24.1967C92.4079 24.4007 92.2939 24.7067 92.2939 25.1147C92.2939 25.5827 92.4619 25.9727 92.7979 26.2847C93.1459 26.5847 93.5779 26.7347 94.0939 26.7347ZM110.407 18.7787C112.351 18.7787 113.323 19.9367 113.323 22.2527V27.1307C113.323 27.3587 113.257 27.5387 113.125 27.6707C112.993 27.7907 112.819 27.8507 112.603 27.8507C112.387 27.8507 112.207 27.7907 112.063 27.6707C111.931 27.5387 111.865 27.3587 111.865 27.1307V22.2887C111.865 21.4847 111.721 20.9027 111.433 20.5427C111.145 20.1827 110.695 20.0027 110.083 20.0027C109.351 20.0027 108.775 20.2487 108.355 20.7407C107.935 21.2327 107.725 21.8987 107.725 22.7387V27.1307C107.725 27.3587 107.653 27.5387 107.509 27.6707C107.377 27.7907 107.203 27.8507 106.987 27.8507C106.771 27.8507 106.597 27.7907 106.465 27.6707C106.333 27.5387 106.267 27.3587 106.267 27.1307V22.2887C106.267 21.4847 106.123 20.9027 105.835 20.5427C105.547 20.1827 105.091 20.0027 104.467 20.0027C103.747 20.0027 103.171 20.2487 102.739 20.7407C102.319 21.2327 102.109 21.8987 102.109 22.7387V27.1307C102.109 27.3587 102.043 27.5387 101.911 27.6707C101.779 27.7907 101.605 27.8507 101.389 27.8507C101.173 27.8507 100.993 27.7907 100.849 27.6707C100.717 27.5387 100.651 27.3587 100.651 27.1307V19.5347C100.651 19.3187 100.717 19.1447 100.849 19.0127C100.993 18.8807 101.173 18.8147 101.389 18.8147C101.593 18.8147 101.761 18.8807 101.893 19.0127C102.025 19.1327 102.091 19.3007 102.091 19.5167V20.3807C102.355 19.8647 102.721 19.4687 103.189 19.1927C103.657 18.9167 104.197 18.7787 104.809 18.7787C106.177 18.7787 107.071 19.3547 107.491 20.5067C107.743 19.9787 108.127 19.5587 108.643 19.2467C109.159 18.9347 109.747 18.7787 110.407 18.7787ZM119.561 18.7787C121.757 18.7787 122.855 19.9307 122.855 22.2347V27.1307C122.855 27.3467 122.789 27.5207 122.657 27.6527C122.537 27.7847 122.369 27.8507 122.153 27.8507C121.937 27.8507 121.763 27.7847 121.631 27.6527C121.499 27.5207 121.433 27.3467 121.433 27.1307V26.2667C121.205 26.7827 120.857 27.1847 120.389 27.4727C119.921 27.7487 119.381 27.8867 118.769 27.8867C118.205 27.8867 117.683 27.7727 117.203 27.5447C116.735 27.3167 116.363 26.9987 116.087 26.5907C115.811 26.1827 115.673 25.7327 115.673 25.2407C115.673 24.5807 115.841 24.0707 116.177 23.7107C116.513 23.3387 117.065 23.0747 117.833 22.9187C118.601 22.7507 119.669 22.6667 121.037 22.6667H121.433V22.0727C121.433 21.3527 121.283 20.8247 120.983 20.4887C120.695 20.1527 120.221 19.9847 119.561 19.9847C118.745 19.9847 117.917 20.2067 117.077 20.6507C116.753 20.8547 116.525 20.9567 116.393 20.9567C116.249 20.9567 116.129 20.9027 116.033 20.7947C115.937 20.6867 115.889 20.5487 115.889 20.3807C115.889 20.2127 115.937 20.0687 116.033 19.9487C116.141 19.8167 116.309 19.6847 116.537 19.5527C116.957 19.3127 117.431 19.1267 117.959 18.9947C118.499 18.8507 119.033 18.7787 119.561 18.7787ZM118.967 26.7347C119.687 26.7347 120.275 26.4947 120.731 26.0147C121.199 25.5227 121.433 24.8927 121.433 24.1247V23.6027H121.109C120.053 23.6027 119.249 23.6507 118.697 23.7467C118.145 23.8307 117.749 23.9807 117.509 24.1967C117.281 24.4007 117.167 24.7067 117.167 25.1147C117.167 25.5827 117.335 25.9727 117.671 26.2847C118.019 26.5847 118.451 26.7347 118.967 26.7347ZM126.262 27.8507C126.046 27.8507 125.866 27.7907 125.722 27.6707C125.59 27.5387 125.524 27.3587 125.524 27.1307V15.7007C125.524 15.4727 125.59 15.2987 125.722 15.1787C125.866 15.0467 126.046 14.9807 126.262 14.9807C126.466 14.9807 126.634 15.0467 126.766 15.1787C126.91 15.2987 126.982 15.4727 126.982 15.7007V27.1307C126.982 27.3587 126.91 27.5387 126.766 27.6707C126.634 27.7907 126.466 27.8507 126.262 27.8507ZM136.493 25.7267C136.625 25.7267 136.739 25.7807 136.835 25.8887C136.931 25.9967 136.979 26.1347 136.979 26.3027C136.979 26.6027 136.769 26.8787 136.349 27.1307C135.917 27.3827 135.461 27.5747 134.981 27.7067C134.501 27.8267 134.033 27.8867 133.577 27.8867C132.221 27.8867 131.147 27.4847 130.355 26.6807C129.575 25.8767 129.185 24.7667 129.185 23.3507C129.185 22.4507 129.359 21.6587 129.707 20.9747C130.055 20.2787 130.541 19.7387 131.165 19.3547C131.801 18.9707 132.521 18.7787 133.325 18.7787C134.465 18.7787 135.371 19.1507 136.043 19.8947C136.715 20.6387 137.051 21.6467 137.051 22.9187C137.051 23.1587 137.003 23.3327 136.907 23.4407C136.811 23.5487 136.655 23.6027 136.439 23.6027H130.643C130.751 25.6667 131.729 26.6987 133.577 26.6987C134.045 26.6987 134.447 26.6387 134.783 26.5187C135.119 26.3867 135.479 26.2127 135.863 25.9967C136.175 25.8167 136.385 25.7267 136.493 25.7267ZM133.343 19.9127C132.575 19.9127 131.957 20.1527 131.489 20.6327C131.033 21.1127 130.763 21.7907 130.679 22.6667H135.773C135.749 21.7787 135.527 21.1007 135.107 20.6327C134.687 20.1527 134.099 19.9127 133.343 19.9127Z" fill="#444B59"/>
</g>
<defs>
<filter id="filter0_d_74:2415" x="0" y="0.847656" width="208" height="50.7822" filterUnits="userSpaceOnUse" color-interpolation-filters="sRGB">
<feFlood flood-opacity="0" result="BackgroundImageFix"/>
<feColorMatrix in="SourceAlpha" type="matrix" values="0 0 0 0 0 0 0 0 0 0 0 0 0 0 0 0 0 0 127 0" result="hardAlpha"/>
<feOffset dy="4"/>
<feGaussianBlur stdDeviation="2"/>
<feComposite in2="hardAlpha" operator="out"/>
<feColorMatrix type="matrix" values="0 0 0 0 0 0 0 0 0 0 0 0 0 0 0 0 0 0 0.25 0"/>
<feBlend mode="normal" in2="BackgroundImageFix" result="effect1_dropShadow_74:2415"/>
<feBlend mode="normal" in="SourceGraphic" in2="effect1_dropShadow_74:2415" result="shape"/>
</filter>
</defs>
</svg>
