<svg width="20" height="19" viewBox="0 0 20 19" fill="none" xmlns="http://www.w3.org/2000/svg">
<path fill-rule="evenodd" clip-rule="evenodd" d="M0 15C0 16.8856 0 17.8284 0.585786 18.4142C1.17157 19 2.11438 19 4 19H16C17.8856 19 18.8284 19 19.4142 18.4142C20 17.8284 20 16.8856 20 15V1C20 0.528596 20 0.292893 19.8536 0.146447C19.7071 0 19.4714 0 19 0H1C0.528596 0 0.292893 0 0.146447 0.146447C0 0.292893 0 0.528596 0 1V15ZM5 4.8C5 4.3286 5 4.09289 5.14645 3.94645C5.29289 3.8 5.5286 3.8 6 3.8H8C8.4714 3.8 8.70711 3.8 8.85355 3.94645C9 4.09289 9 4.3286 9 4.8V6.6C9 7.0714 9 7.30711 8.85355 7.45355C8.70711 7.6 8.4714 7.6 8 7.6H6C5.5286 7.6 5.29289 7.6 5.14645 7.45355C5 7.30711 5 7.0714 5 6.6V4.8ZM5.14645 11.5464C5 11.6929 5 11.9286 5 12.4V14.2C5 14.6714 5 14.9071 5.14645 15.0536C5.29289 15.2 5.5286 15.2 6 15.2H8C8.4714 15.2 8.70711 15.2 8.85355 15.0536C9 14.9071 9 14.6714 9 14.2V12.4C9 11.9286 9 11.6929 8.85355 11.5464C8.70711 11.4 8.4714 11.4 8 11.4H6C5.5286 11.4 5.29289 11.4 5.14645 11.5464ZM11 4.8C11 4.3286 11 4.09289 11.1464 3.94645C11.2929 3.8 11.5286 3.8 12 3.8H14C14.4714 3.8 14.7071 3.8 14.8536 3.94645C15 4.09289 15 4.3286 15 4.8V6.6C15 7.0714 15 7.30711 14.8536 7.45355C14.7071 7.6 14.4714 7.6 14 7.6H12C11.5286 7.6 11.2929 7.6 11.1464 7.45355C11 7.30711 11 7.0714 11 6.6V4.8ZM11.1464 11.5464C11 11.6929 11 11.9286 11 12.4V14.2C11 14.6714 11 14.9071 11.1464 15.0536C11.2929 15.2 11.5286 15.2 12 15.2H14C14.4714 15.2 14.7071 15.2 14.8536 15.0536C15 14.9071 15 14.6714 15 14.2V12.4C15 11.9286 15 11.6929 14.8536 11.5464C14.7071 11.4 14.4714 11.4 14 11.4H12C11.5286 11.4 11.2929 11.4 11.1464 11.5464Z" fill="#D41C24"/>
</svg>
