<svg width="208" height="51" viewBox="0 0 208 51" fill="none" xmlns="http://www.w3.org/2000/svg">
<g filter="url(#filter0_d_74:2416)">
<rect x="5" y="1" width="198" height="40.7826" rx="3" fill="white" stroke="#D41C24" stroke-width="2"/>
<path d="M39 21.3916C39 25.6567 35.0819 29.3046 30 29.3046C24.9181 29.3046 21 25.6567 21 21.3916C21 17.1264 24.9181 13.4785 30 13.4785C35.0819 13.4785 39 17.1264 39 21.3916Z" stroke="#D41C24" stroke-width="2"/>
<path d="M102.115 14.1331C102.343 14.1331 102.517 14.2051 102.637 14.3491C102.769 14.4811 102.835 14.6611 102.835 14.8891V26.2831C102.835 26.4991 102.775 26.6731 102.655 26.8051C102.535 26.9371 102.367 27.0031 102.151 27.0031C101.935 27.0031 101.773 26.9371 101.665 26.8051C101.557 26.6731 101.503 26.4991 101.503 26.2831V17.0851L97.5973 24.5731C97.4293 24.9211 97.1833 25.0951 96.8593 25.0951C96.5473 25.0951 96.3013 24.9211 96.1213 24.5731L92.1973 17.1751V26.2831C92.1973 26.4991 92.1373 26.6731 92.0173 26.8051C91.9093 26.9371 91.7473 27.0031 91.5312 27.0031C91.3153 27.0031 91.1473 26.9371 91.0273 26.8051C90.9073 26.6731 90.8473 26.4991 90.8473 26.2831V14.8891C90.8473 14.6611 90.9133 14.4811 91.0453 14.3491C91.1773 14.2051 91.3573 14.1331 91.5853 14.1331C91.8853 14.1331 92.1253 14.3071 92.3053 14.6551L96.8773 23.4211L101.395 14.6551C101.491 14.4631 101.593 14.3311 101.701 14.2591C101.821 14.1751 101.959 14.1331 102.115 14.1331ZM109.348 17.9311C111.544 17.9311 112.642 19.0831 112.642 21.3871V26.2831C112.642 26.4991 112.576 26.6731 112.444 26.8051C112.324 26.9371 112.156 27.0031 111.94 27.0031C111.724 27.0031 111.55 26.9371 111.418 26.8051C111.286 26.6731 111.22 26.4991 111.22 26.2831V25.4191C110.992 25.9351 110.644 26.3371 110.176 26.6251C109.708 26.9011 109.168 27.0391 108.556 27.0391C107.992 27.0391 107.47 26.9251 106.99 26.6971C106.522 26.4691 106.15 26.1511 105.874 25.7431C105.598 25.3351 105.46 24.8851 105.46 24.3931C105.46 23.7331 105.628 23.2231 105.964 22.8631C106.3 22.4911 106.852 22.2271 107.62 22.0711C108.388 21.9031 109.456 21.8191 110.824 21.8191H111.22V21.2251C111.22 20.5051 111.07 19.9771 110.77 19.6411C110.482 19.3051 110.008 19.1371 109.348 19.1371C108.532 19.1371 107.704 19.3591 106.864 19.8031C106.54 20.0071 106.312 20.1091 106.18 20.1091C106.036 20.1091 105.916 20.0551 105.82 19.9471C105.724 19.8391 105.676 19.7011 105.676 19.5331C105.676 19.3651 105.724 19.2211 105.82 19.1011C105.928 18.9691 106.096 18.8371 106.324 18.7051C106.744 18.4651 107.218 18.2791 107.746 18.1471C108.286 18.0031 108.82 17.9311 109.348 17.9311ZM108.754 25.8871C109.474 25.8871 110.062 25.6471 110.518 25.1671C110.986 24.6751 111.22 24.0451 111.22 23.2771V22.7551H110.896C109.84 22.7551 109.036 22.8031 108.484 22.8991C107.932 22.9831 107.536 23.1331 107.296 23.3491C107.068 23.5531 106.954 23.8591 106.954 24.2671C106.954 24.7351 107.122 25.1251 107.458 25.4371C107.806 25.7371 108.238 25.8871 108.754 25.8871ZM116.049 27.0031C115.833 27.0031 115.653 26.9431 115.509 26.8231C115.377 26.6911 115.311 26.5111 115.311 26.2831V14.8531C115.311 14.6251 115.377 14.4511 115.509 14.3311C115.653 14.1991 115.833 14.1331 116.049 14.1331C116.253 14.1331 116.421 14.1991 116.553 14.3311C116.697 14.4511 116.769 14.6251 116.769 14.8531V26.2831C116.769 26.5111 116.697 26.6911 116.553 26.8231C116.421 26.9431 116.253 27.0031 116.049 27.0031ZM126.281 24.8791C126.413 24.8791 126.527 24.9331 126.623 25.0411C126.719 25.1491 126.767 25.2871 126.767 25.4551C126.767 25.7551 126.557 26.0311 126.137 26.2831C125.705 26.5351 125.249 26.7271 124.769 26.8591C124.289 26.9791 123.821 27.0391 123.365 27.0391C122.009 27.0391 120.935 26.6371 120.143 25.8331C119.363 25.0291 118.973 23.9191 118.973 22.5031C118.973 21.6031 119.147 20.8111 119.495 20.1271C119.843 19.4311 120.329 18.8911 120.953 18.5071C121.589 18.1231 122.309 17.9311 123.113 17.9311C124.253 17.9311 125.159 18.3031 125.831 19.0471C126.503 19.7911 126.839 20.7991 126.839 22.0711C126.839 22.3111 126.791 22.4851 126.695 22.5931C126.599 22.7011 126.443 22.7551 126.227 22.7551H120.431C120.539 24.8191 121.517 25.8511 123.365 25.8511C123.833 25.8511 124.235 25.7911 124.571 25.6711C124.907 25.5391 125.267 25.3651 125.651 25.1491C125.963 24.9691 126.173 24.8791 126.281 24.8791ZM123.131 19.0651C122.363 19.0651 121.745 19.3051 121.277 19.7851C120.821 20.2651 120.551 20.9431 120.467 21.8191H125.561C125.537 20.9311 125.315 20.2531 124.895 19.7851C124.475 19.3051 123.887 19.0651 123.131 19.0651Z" fill="#444B59"/>
</g>
<defs>
<filter id="filter0_d_74:2416" x="0" y="0" width="208" height="50.7822" filterUnits="userSpaceOnUse" color-interpolation-filters="sRGB">
<feFlood flood-opacity="0" result="BackgroundImageFix"/>
<feColorMatrix in="SourceAlpha" type="matrix" values="0 0 0 0 0 0 0 0 0 0 0 0 0 0 0 0 0 0 127 0" result="hardAlpha"/>
<feOffset dy="4"/>
<feGaussianBlur stdDeviation="2"/>
<feComposite in2="hardAlpha" operator="out"/>
<feColorMatrix type="matrix" values="0 0 0 0 0 0 0 0 0 0 0 0 0 0 0 0 0 0 0.25 0"/>
<feBlend mode="normal" in2="BackgroundImageFix" result="effect1_dropShadow_74:2416"/>
<feBlend mode="normal" in="SourceGraphic" in2="effect1_dropShadow_74:2416" result="shape"/>
</filter>
</defs>
</svg>
