<svg width="113" height="25" viewBox="0 0 113 25" fill="none" xmlns="http://www.w3.org/2000/svg">
<path d="M0 0H105C109.418 0 113 3.58172 113 8V25H8C3.58173 25 0 21.4183 0 17V0Z" fill="white" fill-opacity="0.5"/>
<path d="M11.5039 12.1973C10.5391 11.9199 9.83594 11.5801 9.39453 11.1777C8.95703 10.7715 8.73828 10.2715 8.73828 9.67773C8.73828 9.00586 9.00586 8.45117 9.54102 8.01367C10.0801 7.57227 10.7793 7.35156 11.6387 7.35156C12.2246 7.35156 12.7461 7.46484 13.2031 7.69141C13.6641 7.91797 14.0195 8.23047 14.2695 8.62891C14.5234 9.02734 14.6504 9.46289 14.6504 9.93555H13.5195C13.5195 9.41992 13.3555 9.01562 13.0273 8.72266C12.6992 8.42578 12.2363 8.27734 11.6387 8.27734C11.084 8.27734 10.6504 8.40039 10.3379 8.64648C10.0293 8.88867 9.875 9.22656 9.875 9.66016C9.875 10.0078 10.0215 10.3027 10.3145 10.5449C10.6113 10.7832 11.1133 11.002 11.8203 11.2012C12.5312 11.4004 13.0859 11.6211 13.4844 11.8633C13.8867 12.1016 14.1836 12.3809 14.375 12.7012C14.5703 13.0215 14.668 13.3984 14.668 13.832C14.668 14.5234 14.3984 15.0781 13.8594 15.4961C13.3203 15.9102 12.5996 16.1172 11.6973 16.1172C11.1113 16.1172 10.5645 16.0059 10.0566 15.7832C9.54883 15.5566 9.15625 15.248 8.87891 14.8574C8.60547 14.4668 8.46875 14.0234 8.46875 13.5273H9.59961C9.59961 14.043 9.78906 14.4512 10.168 14.752C10.5508 15.0488 11.0605 15.1973 11.6973 15.1973C12.291 15.1973 12.7461 15.0762 13.0625 14.834C13.3789 14.5918 13.5371 14.2617 13.5371 13.8438C13.5371 13.4258 13.3906 13.1035 13.0977 12.877C12.8047 12.6465 12.2734 12.4199 11.5039 12.1973ZM18.4883 15.2324C18.875 15.2324 19.2129 15.1152 19.502 14.8809C19.791 14.6465 19.9512 14.3535 19.9824 14.002H21.0078C20.9883 14.3652 20.8633 14.7109 20.6328 15.0391C20.4023 15.3672 20.0938 15.6289 19.707 15.8242C19.3242 16.0195 18.918 16.1172 18.4883 16.1172C17.625 16.1172 16.9375 15.8301 16.4258 15.2559C15.918 14.6777 15.6641 13.8887 15.6641 12.8887V12.707C15.6641 12.0898 15.7773 11.541 16.0039 11.0605C16.2305 10.5801 16.5547 10.207 16.9766 9.94141C17.4023 9.67578 17.9043 9.54297 18.4824 9.54297C19.1934 9.54297 19.7832 9.75586 20.252 10.1816C20.7246 10.6074 20.9766 11.1602 21.0078 11.8398H19.9824C19.9512 11.4297 19.7949 11.0938 19.5137 10.832C19.2363 10.5664 18.8926 10.4336 18.4824 10.4336C17.9316 10.4336 17.5039 10.6328 17.1992 11.0312C16.8984 11.4258 16.748 11.998 16.748 12.748V12.9531C16.748 13.6836 16.8984 14.2461 17.1992 14.6406C17.5 15.0352 17.9297 15.2324 18.4883 15.2324ZM23.4043 16H22.3203V9.66016H23.4043V16ZM22.2324 7.97852C22.2324 7.80273 22.2852 7.6543 22.3906 7.5332C22.5 7.41211 22.6602 7.35156 22.8711 7.35156C23.082 7.35156 23.2422 7.41211 23.3516 7.5332C23.4609 7.6543 23.5156 7.80273 23.5156 7.97852C23.5156 8.1543 23.4609 8.30078 23.3516 8.41797C23.2422 8.53516 23.082 8.59375 22.8711 8.59375C22.6602 8.59375 22.5 8.53516 22.3906 8.41797C22.2852 8.30078 22.2324 8.1543 22.2324 7.97852ZM27.4004 12.8184H24.541V11.9336H27.4004V12.8184ZM33.3359 12.2324H29.7559V16H28.6309V7.46875H33.916V8.39453H29.7559V11.3125H33.3359V12.2324ZM36.2715 16H35.1875V9.66016H36.2715V16ZM35.0996 7.97852C35.0996 7.80273 35.1523 7.6543 35.2578 7.5332C35.3672 7.41211 35.5273 7.35156 35.7383 7.35156C35.9492 7.35156 36.1094 7.41211 36.2188 7.5332C36.3281 7.6543 36.3828 7.80273 36.3828 7.97852C36.3828 8.1543 36.3281 8.30078 36.2188 8.41797C36.1094 8.53516 35.9492 8.59375 35.7383 8.59375C35.5273 8.59375 35.3672 8.53516 35.2578 8.41797C35.1523 8.30078 35.0996 8.1543 35.0996 7.97852ZM40.7598 13.709C40.7598 13.2988 40.873 12.9219 41.0996 12.5781C41.3301 12.2344 41.7676 11.834 42.4121 11.377C42.0332 10.916 41.7793 10.5449 41.6504 10.2637C41.5215 9.98242 41.457 9.70312 41.457 9.42578C41.457 8.77734 41.6484 8.26953 42.0312 7.90234C42.4141 7.53516 42.9336 7.35156 43.5898 7.35156C44.1758 7.35156 44.6602 7.52344 45.043 7.86719C45.4258 8.20703 45.6172 8.63672 45.6172 9.15625C45.6172 9.5 45.5293 9.81836 45.3535 10.1113C45.1816 10.4004 44.8789 10.7051 44.4453 11.0254L43.8184 11.4883L45.7168 13.7559C45.9824 13.248 46.1152 12.6836 46.1152 12.0625H47.0938C47.0938 13.0586 46.8535 13.8848 46.373 14.541L47.5918 16H46.291L45.7227 15.3262C45.4336 15.584 45.0938 15.7812 44.7031 15.918C44.3164 16.0508 43.9219 16.1172 43.5195 16.1172C42.6875 16.1172 42.0195 15.8965 41.5156 15.4551C41.0117 15.0137 40.7598 14.4316 40.7598 13.709ZM43.5195 15.2324C44.0938 15.2324 44.6191 15.0137 45.0957 14.5762L43.0156 12.0859L42.8223 12.2266C42.1699 12.707 41.8438 13.2012 41.8438 13.709C41.8438 14.1699 41.9922 14.5391 42.2891 14.8164C42.5898 15.0938 43 15.2324 43.5195 15.2324ZM42.541 9.39062C42.541 9.76562 42.7715 10.2344 43.2324 10.7969L43.9238 10.3105C44.1895 10.123 44.3711 9.94531 44.4688 9.77734C44.5664 9.60547 44.6152 9.39844 44.6152 9.15625C44.6152 8.89453 44.5176 8.67773 44.3223 8.50586C44.127 8.33008 43.8809 8.24219 43.584 8.24219C43.2637 8.24219 43.0098 8.35156 42.8223 8.57031C42.6348 8.78516 42.541 9.05859 42.541 9.39062ZM56.3047 12.2324H52.7246V16H51.5996V7.46875H56.8848V8.39453H52.7246V11.3125H56.3047V12.2324ZM61.7773 16C61.7148 15.875 61.6641 15.6523 61.625 15.332C61.1211 15.8555 60.5195 16.1172 59.8203 16.1172C59.1953 16.1172 58.6816 15.9414 58.2793 15.5898C57.8809 15.2344 57.6816 14.7852 57.6816 14.2422C57.6816 13.582 57.9316 13.0703 58.4316 12.707C58.9355 12.3398 59.6426 12.1562 60.5527 12.1562H61.6074V11.6582C61.6074 11.2793 61.4941 10.9785 61.2676 10.7559C61.041 10.5293 60.707 10.416 60.2656 10.416C59.8789 10.416 59.5547 10.5137 59.293 10.709C59.0312 10.9043 58.9004 11.1406 58.9004 11.418H57.8105C57.8105 11.1016 57.9219 10.7969 58.1445 10.5039C58.3711 10.207 58.6758 9.97266 59.0586 9.80078C59.4453 9.62891 59.8691 9.54297 60.3301 9.54297C61.0605 9.54297 61.6328 9.72656 62.0469 10.0938C62.4609 10.457 62.6758 10.959 62.6914 11.5996V14.5176C62.6914 15.0996 62.7656 15.5625 62.9141 15.9062V16H61.7773ZM59.9785 15.1738C60.3184 15.1738 60.6406 15.0859 60.9453 14.9102C61.25 14.7344 61.4707 14.5059 61.6074 14.2246V12.9238H60.7578C59.4297 12.9238 58.7656 13.3125 58.7656 14.0898C58.7656 14.4297 58.8789 14.6953 59.1055 14.8867C59.332 15.0781 59.623 15.1738 59.9785 15.1738ZM65.416 9.66016L65.4512 10.457C65.9355 9.84766 66.5684 9.54297 67.3496 9.54297C68.6895 9.54297 69.3652 10.2988 69.377 11.8105V16H68.293V11.8047C68.2891 11.3477 68.1836 11.0098 67.9766 10.791C67.7734 10.5723 67.4551 10.4629 67.0215 10.4629C66.6699 10.4629 66.3613 10.5566 66.0957 10.7441C65.8301 10.9316 65.623 11.1777 65.4746 11.4824V16H64.3906V9.66016H65.416ZM72.4824 8.125V9.66016H73.666V10.498H72.4824V14.4297C72.4824 14.6836 72.5352 14.875 72.6406 15.0039C72.7461 15.1289 72.9258 15.1914 73.1797 15.1914C73.3047 15.1914 73.4766 15.168 73.6953 15.1211V16C73.4102 16.0781 73.1328 16.1172 72.8633 16.1172C72.3789 16.1172 72.0137 15.9707 71.7676 15.6777C71.5215 15.3848 71.3984 14.9688 71.3984 14.4297V10.498H70.2441V9.66016H71.3984V8.125H72.4824ZM78.8516 16C78.7891 15.875 78.7383 15.6523 78.6992 15.332C78.1953 15.8555 77.5938 16.1172 76.8945 16.1172C76.2695 16.1172 75.7559 15.9414 75.3535 15.5898C74.9551 15.2344 74.7559 14.7852 74.7559 14.2422C74.7559 13.582 75.0059 13.0703 75.5059 12.707C76.0098 12.3398 76.7168 12.1562 77.627 12.1562H78.6816V11.6582C78.6816 11.2793 78.5684 10.9785 78.3418 10.7559C78.1152 10.5293 77.7812 10.416 77.3398 10.416C76.9531 10.416 76.6289 10.5137 76.3672 10.709C76.1055 10.9043 75.9746 11.1406 75.9746 11.418H74.8848C74.8848 11.1016 74.9961 10.7969 75.2188 10.5039C75.4453 10.207 75.75 9.97266 76.1328 9.80078C76.5195 9.62891 76.9434 9.54297 77.4043 9.54297C78.1348 9.54297 78.707 9.72656 79.1211 10.0938C79.5352 10.457 79.75 10.959 79.7656 11.5996V14.5176C79.7656 15.0996 79.8398 15.5625 79.9883 15.9062V16H78.8516ZM77.0527 15.1738C77.3926 15.1738 77.7148 15.0859 78.0195 14.9102C78.3242 14.7344 78.5449 14.5059 78.6816 14.2246V12.9238H77.832C76.5039 12.9238 75.8398 13.3125 75.8398 14.0898C75.8398 14.4297 75.9531 14.6953 76.1797 14.8867C76.4062 15.0781 76.6973 15.1738 77.0527 15.1738ZM85.1562 14.3184C85.1562 14.0254 85.0449 13.7988 84.8223 13.6387C84.6035 13.4746 84.2188 13.334 83.668 13.2168C83.1211 13.0996 82.6855 12.959 82.3613 12.7949C82.041 12.6309 81.8027 12.4355 81.6465 12.209C81.4941 11.9824 81.418 11.7129 81.418 11.4004C81.418 10.8809 81.6367 10.4414 82.0742 10.082C82.5156 9.72266 83.0781 9.54297 83.7617 9.54297C84.4805 9.54297 85.0625 9.72852 85.5078 10.0996C85.957 10.4707 86.1816 10.9453 86.1816 11.5234H85.0918C85.0918 11.2266 84.9648 10.9707 84.7109 10.7559C84.4609 10.541 84.1445 10.4336 83.7617 10.4336C83.3672 10.4336 83.0586 10.5195 82.8359 10.6914C82.6133 10.8633 82.502 11.0879 82.502 11.3652C82.502 11.627 82.6055 11.8242 82.8125 11.957C83.0195 12.0898 83.3926 12.2168 83.9316 12.3379C84.4746 12.459 84.9141 12.6035 85.25 12.7715C85.5859 12.9395 85.834 13.1426 85.9941 13.3809C86.1582 13.6152 86.2402 13.9023 86.2402 14.2422C86.2402 14.8086 86.0137 15.2637 85.5605 15.6074C85.1074 15.9473 84.5195 16.1172 83.7969 16.1172C83.2891 16.1172 82.8398 16.0273 82.4492 15.8477C82.0586 15.668 81.752 15.418 81.5293 15.0977C81.3105 14.7734 81.2012 14.4238 81.2012 14.0488H82.2852C82.3047 14.4121 82.4492 14.7012 82.7188 14.916C82.9922 15.127 83.3516 15.2324 83.7969 15.2324C84.207 15.2324 84.5352 15.1504 84.7812 14.9863C85.0312 14.8184 85.1562 14.5957 85.1562 14.3184ZM89.7266 14.4121L91.2031 9.66016H92.3633L89.8145 16.9785C89.4199 18.0332 88.793 18.5605 87.9336 18.5605L87.7285 18.543L87.3242 18.4668V17.5879L87.6172 17.6113C87.9844 17.6113 88.2695 17.5371 88.4727 17.3887C88.6797 17.2402 88.8496 16.9688 88.9824 16.5742L89.2227 15.9297L86.9609 9.66016H88.1445L89.7266 14.4121Z" fill="#D41C24"/>
</svg>
